HIERARCHY
ROOT Hips
{
	OFFSET 0.00000 0.00000 0.00000
	CHANNELS 6 Xposition Yposition Zposition Zrotation Yrotation Xrotation 
	JOINT LHipJoint
	{
		OFFSET 0 0 0
		CHANNELS 3 Zrotation Yrotation Xrotation
		JOINT LeftHip
		{
			OFFSET 1.29432 -1.88279 0.59910
			CHANNELS 3 Zrotation Yrotation Xrotation
			JOINT LeftKnee
			{
				OFFSET 2.63039 -7.22694 0.00000
				CHANNELS 3 Zrotation Yrotation Xrotation
				JOINT LeftAnkle
				{
					OFFSET 2.70674 -7.43672 0.00000
					CHANNELS 3 Zrotation Yrotation Xrotation
					JOINT LeftToe
					{
						OFFSET 0.15066 -0.41394 2.09027
						CHANNELS 3 Zrotation Yrotation Xrotation
						End Site
						{
							OFFSET 0.00000 -0.00000 1.07518
						}
					}
				}
			}
		}
	}
	JOINT RHipJoint
	{
		OFFSET 0 0 0
		CHANNELS 3 Zrotation Yrotation Xrotation
		JOINT RightHip
		{
			OFFSET -1.37068 -1.88279 0.59910
			CHANNELS 3 Zrotation Yrotation Xrotation
			JOINT RightKnee
			{
				OFFSET -2.57023 -7.06166 0.00000
				CHANNELS 3 Zrotation Yrotation Xrotation
				JOINT RightAnkle
				{
					OFFSET -2.76461 -7.59570 0.00000
					CHANNELS 3 Zrotation Yrotation Xrotation
					JOINT RightToe
					{
						OFFSET -0.24175 -0.64785 2.19719
						CHANNELS 3 Zrotation Yrotation Xrotation
						End Site
						{
							OFFSET -0.00000 -0.00000 1.14803
						}
					}
				}
			}
		}
	}
	JOINT lowerback
	{
		OFFSET 0 0 0
		CHANNELS 3 Zrotation Yrotation Xrotation
		JOINT Chest
		{
			OFFSET -0.03138 2.03983 -0.23106
			CHANNELS 3 Zrotation Yrotation Xrotation
			JOINT Chest2
			{
				OFFSET -0.00325 2.06238 -0.06878
				CHANNELS 3 Zrotation Yrotation Xrotation
				JOINT lowerneck
				{
					OFFSET 0 0 0
					CHANNELS 3 Zrotation Yrotation Xrotation
					JOINT Neck
					{
						OFFSET -0.00002 1.75318 0.18090
						CHANNELS 3 Zrotation Yrotation Xrotation
						JOINT Head
						{
							OFFSET 0.08806 1.75856 -0.25387
							CHANNELS 3 Zrotation Yrotation Xrotation
							End Site
							{
								OFFSET 0.02554 1.78597 -0.10684
							}
						}
					}
				}
				JOINT LeftCollar
				{
					OFFSET 0 0 0
					CHANNELS 3 Zrotation Yrotation Xrotation
					JOINT LeftShoulder
					{
						OFFSET 3.09657 1.33597 -0.04414
CHANNELS 3 Zrotation Xrotation Yrotation
						JOINT LeftElbow
						{
OFFSET 0 -5.342980 -0.000000
CHANNELS 3 Zrotation Xrotation Yrotation
							JOINT LeftWrist
							{
OFFSET 0 -3.672620 -0.000000
CHANNELS 3 Zrotation Xrotation Yrotation
								JOINT lhand
								{
									OFFSET 0 0 0
CHANNELS 3 Zrotation Xrotation Yrotation
									JOINT LFingers
									{
OFFSET 0 -0.599300 -0.000000
CHANNELS 3 Zrotation Xrotation Yrotation
										End Site
										{
OFFSET 0 -0.483170 -0.000000
										}
									}
								}
								JOINT LThumb
								{
OFFSET 0 0.000000 0.000000
CHANNELS 3 Zrotation Xrotation Yrotation
									End Site
									{
OFFSET 0 -0.490550 0.490550
									}
								}
							}
						}
					}
				}
				JOINT RightCollar
				{
					OFFSET 0 0 0
					CHANNELS 3 Zrotation Yrotation Xrotation
					JOINT RightShoulder
					{
						OFFSET -3.16460 1.32273 -0.23382
CHANNELS 3 Zrotation Xrotation Yrotation
						JOINT RightElbow
						{
OFFSET 0 -5.549670 0.033480
CHANNELS 3 Zrotation Xrotation Yrotation
							JOINT RightWrist
							{
OFFSET 0 -3.694010 0.000000
CHANNELS 3 Zrotation Xrotation Yrotation
								JOINT rhand
								{
									OFFSET 0 0 0
CHANNELS 3 Zrotation Xrotation Yrotation
									JOINT RFingers
									{
OFFSET 0 -0.638110 0.000000
CHANNELS 3 Zrotation Xrotation Yrotation
										End Site
										{
OFFSET 0 -0.514460 0.000000
										}
									}
								}
								JOINT RThumb
								{
OFFSET 0 0.000000 0.000000
CHANNELS 3 Zrotation Xrotation Yrotation
									End Site
									{
OFFSET 0 -0.522320 0.522320
									}
								}
							}
						}
					}
				}
			}
		}
	}
}
MOTION
Frames: 4
Frame Time: 0.008333333333333333
7.305624 18.475187 -8.223531 -0.086283 54.669406 6.627119 0.000000 0.000000 0.000000 -21.648852 -0.853497 -11.357460 0.834026 5.825891 16.280052 0.483215 4.935599 -15.869410 0.575858 4.857006 13.501614 0.000000 0.000000 0.000000 10.079261 5.774933 -13.996887 -3.509348 -11.476959 33.906147 1.027015 -22.291011 -23.056594 -0.349166 -3.790354 10.488304 -5.765395 -1.486894 2.674246 -4.583767 -1.740885 4.910719 -1.524628 -0.923431 3.623030 -14.411420 -12.150307 4.421055 -1.711380 -14.820254 34.219885 0.446458 -8.455332 11.651922 0.000000 0.000000 0.000000 13.013723 2.985533 -10.425651 20.554243 -31.303959 5.816737 12.657746 20.150485 -30.003703 0.000000 0.000000 0.000000 -7.125000 0.000000 0.000000 -21.139988 59.330955 7.609598 0.000000 0.000000 0.000000 -64.238431 -1.545742 -2.283291 -79.960382 -59.615573 -51.316637 10.949453 -31.607499 -4.929152 0.000000 0.000000 0.000000 7.125000 0.000000 0.000000 27.210251 24.676097 15.066009
7.325832 18.476719 -8.239454 -0.446364 54.714645 6.180467 0.000000 0.000000 0.000000 -21.470220 -0.784388 -11.262595 0.851933 5.886435 16.455349 0.505532 4.604042 -15.907507 0.711767 5.385896 15.014017 0.000000 0.000000 0.000000 10.225374 5.901212 -14.261176 -3.650346 -11.679382 34.607690 1.233922 -22.924681 -22.152807 -0.266850 -3.315975 9.160328 -5.507274 -1.460871 2.815086 -4.545573 -1.718970 4.931012 -1.623832 -0.904129 3.555206 -14.532854 -12.162458 4.465120 -1.703671 -14.836195 34.209906 0.466609 -8.475673 11.656040 0.000000 0.000000 0.000000 13.058336 2.702995 -10.290482 20.819124 -31.616367 5.954990 13.148047 20.864631 -29.695918 0.000000 0.000000 0.000000 -7.125000 0.000000 0.000000 -20.399584 59.155784 7.243856 0.000000 0.000000 0.000000 -64.919505 -1.316467 -0.643192 -79.712723 -59.596307 -51.103071 8.675941 -33.632971 -4.850810 0.000000 0.000000 0.000000 7.125000 0.000000 0.000000 25.712709 24.842394 13.931088
7.343489 18.475002 -8.254291 -1.107459 54.746381 5.598592 0.000000 0.000000 0.000000 -21.138903 -0.450232 -11.433573 0.870022 5.946962 16.630723 0.502340 4.343923 -15.684893 0.685948 5.292780 14.746116 0.000000 0.000000 0.000000 10.534442 5.956378 -14.712741 -3.792608 -11.878406 35.304153 1.183748 -22.789433 -22.418571 -0.512413 -4.492863 12.482613 -5.011790 -1.433617 2.827550 -4.547725 -1.683825 4.940996 -1.900293 -0.870291 3.539367 -14.670341 -12.118804 4.443895 -1.482179 -14.826111 34.290063 0.560893 -8.467876 11.726375 0.000000 0.000000 0.000000 13.378844 2.234367 -10.312550 20.985409 -31.811227 6.042286 13.020070 21.060348 -29.352251 0.000000 0.000000 0.000000 -7.125000 0.000000 0.000000 -20.281313 58.806849 7.027236 0.000000 0.000000 0.000000 -65.421442 -1.182802 0.707522 -79.565015 -59.584540 -50.975671 5.121987 -35.142667 -4.329244 0.000000 0.000000 0.000000 7.125000 0.000000 0.000000 23.381299 25.434182 12.086530
7.358734 18.465965 -8.270977 -1.519393 54.798920 5.259465 0.000000 0.000000 0.000000 -20.983000 -0.158973 -11.624495 0.883504 5.991735 16.760467 0.497874 4.130588 -15.483346 0.607466 4.984932 13.866460 0.000000 0.000000 0.000000 10.680956 6.085371 -15.185201 -3.938454 -12.077181 36.006764 1.188628 -22.815850 -22.425657 -0.738343 -5.479064 15.282688 -4.668396 -1.407117 2.768705 -4.585405 -1.638318 4.993081 -2.132994 -0.835876 3.613385 -14.759743 -12.091501 4.354460 -1.233100 -14.843252 34.349781 0.651718 -8.463172 11.799471 0.000000 0.000000 0.000000 13.749695 1.727515 -10.578115 21.195998 -32.056028 6.153765 12.930865 20.841496 -29.235353 0.000000 0.000000 0.000000 -7.125000 0.000000 0.000000 -20.289169 58.677644 6.966925 0.000000 0.000000 0.000000 -65.804695 -1.113089 1.551578 -79.332009 -59.565475 -50.774759 2.194420 -35.350922 -3.788084 0.000000 0.000000 0.000000 7.125000 0.000000 0.000000 21.436699 26.010041 10.592887
